<svg width="329" height="240" viewBox="0 0 329 240" fill="none" xmlns="http://www.w3.org/2000/svg">
<path d="M98.8414 27.5719L165.785 97.2047L202.438 26.5547L223.27 80.0812L284.868 60.4547L251.653 106.8L296.042 114.577L259.525 143.166L293.645 187.57L219.813 167.995L212.462 196.931L174.421 170.808L178.335 228.342L129.897 177.788L90.5779 220.514L84.0557 186.788L29.4944 209.873L78.8765 149.597L5.07001 121.031L93.6687 113.264L98.8414 27.5719Z" fill="black"/>
<path d="M98.7384 214.861C89.3246 214.861 80.8876 208.922 72.9453 196.697C68.7943 190.294 65.3179 182.817 62.6127 174.483C59.9588 166.303 58.0182 157.139 56.8552 147.244C54.8503 130.453 55.6278 114.342 59.1684 99.3609C63.7629 80.0671 71.93 69.6655 84.1262 67.5562C85.3535 67.3452 86.5937 67.2374 87.8081 67.2374C97.1577 67.2374 105.53 73.1952 113.408 85.4484C117.752 92.1749 121.351 99.8718 124.095 108.319C126.716 116.391 128.657 125.428 129.871 135.183C131.838 151.88 130.996 167.944 127.372 182.934C122.739 202.106 114.597 212.442 102.491 214.537C101.244 214.753 99.985 214.861 98.7448 214.861H98.7384ZM94.8572 114.609C94.7094 114.609 94.5616 114.623 94.4074 114.651C92.756 114.937 88.7013 117.103 86.6258 131.048C85.2507 139.734 85.0258 148.134 85.9575 156.033C86.4909 160.172 87.2941 163.917 88.3415 167.137C89.7809 171.567 91.7793 175.055 94.2789 177.511C96.303 179.451 98.3721 180.445 100.422 180.445C100.827 180.445 101.251 180.408 101.681 180.333C106.417 179.512 108.692 173.934 109.759 169.397C111.127 163.655 111.339 157.003 110.388 149.63C109.29 140.92 106.906 132.441 103.301 124.42C99.0854 115.322 95.7761 114.614 94.8572 114.614V114.609Z" fill="black"/>
<path d="M87.8018 69.1124C95.9753 69.1124 103.731 74.8218 111.07 86.2452C115.362 92.8874 118.864 100.387 121.582 108.75C124.185 116.77 126.093 125.639 127.301 135.351C129.261 151.955 128.432 167.709 124.827 182.611C120.432 200.794 112.785 210.83 101.887 212.714C100.833 212.897 99.7794 212.986 98.7384 212.986C90.4942 212.986 82.674 207.291 75.2651 195.895C71.1783 189.586 67.7854 182.306 65.1059 174.056C62.4649 165.923 60.5693 156.933 59.4127 147.089C57.4142 130.373 58.1789 114.572 61.6938 99.6843C66.0569 81.3843 73.7229 71.2874 84.711 69.389C85.7455 69.2109 86.7801 69.1218 87.8018 69.1218M100.416 182.316C101.026 182.316 101.643 182.259 102.266 182.151C107.188 181.303 110.53 177.155 112.284 169.711C113.698 163.781 113.916 157.026 112.939 149.451C111.815 140.569 109.418 132.033 105.736 123.834C102.311 116.437 98.6806 112.734 94.8508 112.734C94.5038 112.734 94.1569 112.762 93.8099 112.823C88.9777 113.658 85.7262 119.667 84.0684 130.842C82.6676 139.678 82.4426 148.125 83.3937 156.187C83.9399 160.448 84.7559 164.241 85.8355 167.564C87.3648 172.261 89.4853 175.95 92.2098 178.622C94.7737 181.083 97.5047 182.311 100.416 182.311M87.8082 65.3624C86.3881 65.3624 84.9551 65.489 83.535 65.7327C70.2272 68.0343 61.4303 78.928 56.6367 99.0374C53.0576 114.183 52.2736 130.458 54.2977 147.412C55.4736 157.397 57.4271 166.655 60.1131 174.919C62.8633 183.38 66.3975 190.978 70.6256 197.498C79.0434 210.445 88.2387 216.736 98.7449 216.736C100.184 216.736 101.643 216.609 103.082 216.361C116.294 214.078 125.065 203.25 129.897 183.262C133.566 168.108 134.414 151.88 132.429 135.033C131.201 125.17 129.242 116.044 126.594 107.887C123.812 99.314 120.156 91.4952 115.728 84.6468C107.388 71.6718 98.2565 65.3624 87.8082 65.3624ZM88.515 155.859C87.6026 148.087 87.8275 139.819 89.1769 131.278C89.1769 131.269 89.1769 131.259 89.1769 131.25C90.9504 119.306 94.0797 116.948 94.8316 116.55C95.4998 116.892 97.8388 118.495 100.859 125.02C104.4 132.905 106.745 141.239 107.824 149.798C108.756 157.012 108.551 163.495 107.22 169.073C105.929 174.544 103.635 178.069 101.077 178.509C100.84 178.551 100.621 178.57 100.409 178.57C98.9183 178.57 97.3633 177.384 96.3159 176.381C94.0283 174.136 92.1841 170.878 90.8283 166.711C89.813 163.58 89.0291 159.928 88.5022 155.864L88.515 155.859Z" fill="black"/>
<path d="M175.469 206.226C175.077 206.226 174.685 206.161 174.318 206.03C173.586 205.762 173.072 205.261 172.937 204.675L157.688 140.93L164.101 193.889C164.191 194.653 163.639 195.38 162.701 195.726L136.843 205.28C136.477 205.416 136.079 205.481 135.68 205.481C135.218 205.481 134.761 205.392 134.35 205.209C133.592 204.876 133.123 204.281 133.11 203.634C132.255 162.675 128.323 120.914 121.434 79.5186C121.312 78.7686 121.813 78.0374 122.719 77.6624L152.047 65.5124C152.439 65.3483 152.876 65.2686 153.313 65.2686C153.685 65.2686 154.058 65.3249 154.398 65.4467C155.15 65.7046 155.69 66.2108 155.838 66.8108L162.662 94.1202L160.117 70.753C160.04 70.0405 160.529 69.3561 161.37 68.9905L189.432 56.8874C189.837 56.7139 190.286 56.6249 190.743 56.6249C191.115 56.6249 191.488 56.6811 191.829 56.803C192.6 57.0655 193.14 57.5858 193.274 58.1999C201.75 95.953 210.965 130.223 220.655 160.059L226.406 177.759C226.663 178.556 226.187 179.381 225.223 179.803L200.343 190.636C199.938 190.814 199.482 190.903 199.026 190.903C198.666 190.903 198.306 190.847 197.972 190.739C197.207 190.486 196.654 189.98 196.5 189.375L185.962 148.669L191.694 199.116C191.777 199.875 191.231 200.597 190.299 200.939L176.632 206.025C176.265 206.161 175.867 206.231 175.462 206.231L175.469 206.226Z" fill="black"/>
<path d="M190.749 58.4999C199.276 96.4781 208.42 130.472 218.168 160.491C220.102 166.448 222.017 172.35 223.919 178.191L199.038 189.023L179.337 112.926L189.143 199.266L175.475 204.351L149.791 96.9796L161.55 194.053L135.693 203.606C134.832 162.37 130.932 120.933 123.998 79.2937L153.325 67.1437L169.268 130.983L162.688 70.603L190.749 58.4999ZM190.749 54.7499C189.843 54.7499 188.937 54.9234 188.134 55.2702L160.073 67.3734C159.584 67.5843 159.16 67.8468 158.8 68.1515L158.383 66.4734C158.087 65.2781 157.007 64.2609 155.504 63.7499C154.81 63.5156 154.071 63.3984 153.325 63.3984C152.445 63.3984 151.571 63.5624 150.787 63.8859L121.46 76.0359C119.654 76.7812 118.646 78.2484 118.896 79.7484C125.778 121.078 129.698 162.769 130.559 203.662C130.585 204.956 131.523 206.147 133.039 206.817C133.855 207.178 134.774 207.356 135.7 207.356C136.496 207.356 137.293 207.22 138.019 206.953L163.877 197.4C165.753 196.706 166.858 195.253 166.672 193.725L165.599 184.875L170.412 204.998C170.694 206.17 171.716 207.178 173.181 207.708C173.907 207.97 174.691 208.101 175.475 208.101C176.259 208.101 177.075 207.966 177.808 207.694L191.475 202.608C193.332 201.919 194.438 200.475 194.264 198.956L192.613 184.406L193.988 189.717C194.303 190.922 195.395 191.939 196.931 192.441C197.606 192.661 198.325 192.769 199.038 192.769C199.951 192.769 200.863 192.591 201.673 192.239L226.554 181.406C228.481 180.567 229.439 178.912 228.918 177.323L223.572 160.856L223.174 159.619C213.496 129.816 204.295 95.5921 195.826 57.8859C195.549 56.6624 194.47 55.6171 192.928 55.0968C192.234 54.8624 191.495 54.7452 190.749 54.7452V54.7499Z" fill="black"/>
<path d="M248.588 188.958C239.296 188.958 231.032 183.225 223.315 171.441C219.119 165.173 215.63 157.819 212.957 149.592C210.451 141.867 208.6 133.116 207.463 123.581C205.432 107.264 206.267 91.6218 209.962 77.0905C214.608 58.5374 222.711 48.5108 234.721 46.4343C235.967 46.2186 237.22 46.1108 238.461 46.1108C247.868 46.1108 256.266 52.064 264.138 64.303C264.389 64.6968 264.446 65.1421 264.299 65.5593L256.311 88.5421C256.061 89.2593 255.258 89.803 254.255 89.9296C254.107 89.9483 253.966 89.9577 253.818 89.9577C252.97 89.9577 252.167 89.653 251.685 89.1233C250.027 87.314 248.376 86.3952 246.776 86.3952C246.499 86.3952 246.217 86.4187 245.921 86.4702C241.275 87.2718 237.844 93.4733 236.257 103.922C234.971 112.575 234.946 122.044 236.192 132.056C236.655 135.989 237.381 139.491 238.351 142.481C239.784 146.892 241.789 150.295 244.315 152.611C246.345 154.509 248.331 155.423 250.393 155.423C250.817 155.423 251.261 155.386 251.711 155.306C254.814 154.772 257.224 152.076 258.882 147.3C260.077 143.92 260.739 139.898 260.861 135.295C256.524 137.447 252.437 139.603 248.671 141.726C248.215 141.984 247.656 142.12 247.097 142.12C246.756 142.12 246.416 142.073 246.094 141.97C245.24 141.708 244.649 141.126 244.539 140.451L240.536 114.53C240.427 113.841 240.857 113.161 241.641 112.772L273.443 96.9327C273.873 96.7171 274.381 96.6046 274.888 96.6046C275.197 96.6046 275.505 96.6421 275.794 96.7265C276.578 96.9421 277.17 97.4249 277.375 98.0155C280.003 105.525 281.584 114.483 282.072 124.636C282.452 133.58 282.027 142.041 280.807 149.794C277.041 173.269 267.736 185.967 252.366 188.625C251.107 188.841 249.834 188.953 248.581 188.953L248.588 188.958Z" fill="black"/>
<path d="M238.454 47.9812C246.686 47.9812 254.467 53.6859 261.799 65.0953L253.812 88.0781C251.633 85.7062 249.288 84.5203 246.763 84.5203C246.287 84.5203 245.805 84.5625 245.317 84.6468C239.341 85.6781 235.466 92.039 233.693 103.72C232.382 112.542 232.356 122.044 233.622 132.23C234.098 136.261 234.836 139.823 235.839 142.917C237.368 147.614 239.514 151.237 242.29 153.783C244.803 156.131 247.502 157.303 250.38 157.303C251.01 157.303 251.646 157.247 252.289 157.134C256.421 156.422 259.441 153.295 261.356 147.764C262.904 143.386 263.585 138.061 263.412 131.798C257.468 134.639 252.025 137.461 247.084 140.245L243.081 114.323L274.882 98.4843C277.472 105.895 279.014 114.637 279.502 124.706C279.881 133.589 279.464 141.881 278.255 149.583C274.663 171.97 265.834 184.373 251.775 186.806C250.702 186.994 249.641 187.083 248.581 187.083C240.459 187.083 232.812 181.598 225.628 170.63C221.49 164.447 218.097 157.294 215.45 149.156C212.957 141.483 211.145 132.9 210.014 123.412C207.99 107.184 208.812 91.8562 212.481 77.4281C216.889 59.8499 224.497 50.1234 235.306 48.2531C236.359 48.0703 237.407 47.9812 238.448 47.9812M238.454 44.2312C237.021 44.2312 235.563 44.3578 234.123 44.6062C221.015 46.8703 212.282 57.389 207.431 76.7578C203.697 91.4484 202.842 107.264 204.899 123.759C206.049 133.369 207.919 142.214 210.451 150.028C213.162 158.386 216.716 165.867 221.002 172.27C229.182 184.767 238.204 190.842 248.581 190.842C250.033 190.842 251.505 190.716 252.957 190.462C261.478 188.991 268.392 184.598 273.5 177.412C278.178 170.836 281.5 161.62 283.358 150.028C284.591 142.177 285.022 133.622 284.636 124.598C284.141 114.291 282.535 105.202 279.862 97.5656C279.444 96.3796 278.268 95.4187 276.694 94.9828C276.103 94.8187 275.492 94.739 274.875 94.739C273.854 94.739 272.845 94.9593 271.977 95.3906L240.176 111.23C238.602 112.012 237.754 113.367 237.966 114.745L241.969 140.667C242.175 142.012 243.363 143.175 245.073 143.7C245.715 143.897 246.396 143.995 247.071 143.995C248.189 143.995 249.301 143.728 250.22 143.212C252.687 141.82 255.303 140.409 258.034 138.998C257.738 141.914 257.179 144.534 256.369 146.827C255.02 150.717 253.105 153.141 251.094 153.487C250.837 153.534 250.599 153.553 250.368 153.553C248.87 153.553 247.347 152.423 246.326 151.472C246.313 151.462 246.306 151.453 246.294 151.444C244.006 149.348 242.168 146.189 240.819 142.05C239.874 139.148 239.167 135.736 238.718 131.906C237.484 121.997 237.503 112.659 238.775 104.123C240.928 89.9531 245.568 88.4531 246.474 88.2984C246.57 88.2796 246.66 88.275 246.731 88.275C247.245 88.275 248.305 88.8609 249.507 90.1687C250.47 91.2187 252.083 91.8328 253.78 91.8328C254.069 91.8328 254.364 91.814 254.654 91.7765C256.652 91.5234 258.265 90.4406 258.766 89.0015L266.753 66.0187C267.042 65.1796 266.927 64.289 266.426 63.5062C258.091 50.5406 248.935 44.2359 238.422 44.2359L238.454 44.2312Z" fill="black"/>
<path d="M106.616 211.824C97.2027 211.824 88.7657 205.884 80.8234 193.659C76.6724 187.256 73.196 179.78 70.4907 171.445C67.8369 163.266 65.8963 154.102 64.7332 144.206C62.7284 127.416 63.5059 111.305 67.0465 96.3235C71.641 77.0298 79.8081 66.6282 92.0043 64.5188C93.2316 64.3079 94.4718 64.2001 95.6862 64.2001C105.036 64.2001 113.409 70.1579 121.287 82.411C125.63 89.1376 129.229 96.8344 131.973 105.281C134.594 113.353 136.535 122.391 137.749 132.145C139.716 148.842 138.874 164.906 135.25 179.897C130.617 199.069 122.475 209.405 110.369 211.5C109.123 211.716 107.863 211.824 106.623 211.824H106.616ZM102.735 111.572C102.588 111.572 102.44 111.586 102.286 111.614C100.634 111.9 96.5794 114.066 94.5039 128.011C93.1288 136.697 92.9039 145.097 93.8356 152.995C94.369 157.134 95.1722 160.88 96.2196 164.1C97.659 168.53 99.6574 172.017 102.157 174.473C104.181 176.414 106.25 177.408 108.3 177.408C108.705 177.408 109.129 177.37 109.559 177.295C114.295 176.475 116.57 170.897 117.637 166.359C119.005 160.617 119.217 153.966 118.266 146.592C117.168 137.883 114.784 129.403 111.179 121.383C106.963 112.284 103.654 111.577 102.735 111.577V111.572Z" fill="#50B861"/>
<path d="M95.6798 66.0797C103.853 66.0797 111.609 71.7891 118.948 83.2125C123.24 89.8547 126.742 97.3547 129.46 105.717C132.063 113.738 133.971 122.606 135.179 132.319C137.139 148.922 136.31 164.677 132.705 179.578C128.31 197.761 120.663 207.797 109.765 209.681C108.711 209.864 107.657 209.953 106.616 209.953C98.3722 209.953 90.552 204.258 83.1431 192.863C79.0563 186.553 75.6635 179.273 72.9839 171.023C70.3429 162.891 68.4473 153.9 67.2907 144.056C65.2922 127.341 66.0569 111.539 69.5718 96.6516C73.9349 78.3516 81.6009 68.2547 92.589 66.3563C93.6235 66.1781 94.6581 66.0891 95.6798 66.0891M108.294 179.278C108.904 179.278 109.521 179.222 110.144 179.114C115.066 178.266 118.408 174.117 120.162 166.673C121.576 160.744 121.794 153.989 120.817 146.414C119.693 137.531 117.296 128.995 113.614 120.797C110.189 113.4 106.559 109.697 102.729 109.697C102.382 109.697 102.035 109.725 101.688 109.786C96.8557 110.62 93.6042 116.63 91.9464 127.805C90.5456 136.641 90.3207 145.088 91.2717 153.15C91.8179 157.411 92.6339 161.203 93.7135 164.527C95.2428 169.223 97.3633 172.913 100.088 175.584C102.652 178.045 105.383 179.273 108.294 179.273M95.6798 62.3297C94.2597 62.3297 92.8267 62.4563 91.4066 62.7C78.0988 65.0016 69.3019 75.8953 64.5083 96.0047C60.9291 111.15 60.1452 127.425 62.1693 144.38C63.3452 154.364 65.2987 163.622 67.9846 171.886C70.7349 180.347 74.2691 187.945 78.4972 194.466C86.915 207.413 96.1103 213.703 106.616 213.703C108.056 213.703 109.514 213.577 110.954 213.328C124.165 211.045 132.936 200.217 137.769 180.23C141.438 165.075 142.286 148.847 140.3 132C139.073 122.138 137.113 113.011 134.466 104.855C131.683 96.2813 128.027 88.4625 123.6 81.6141C115.259 68.6391 106.128 62.3297 95.6798 62.3297ZM96.393 152.822C95.4806 145.05 95.7055 136.781 97.0549 128.241C97.0549 128.231 97.0549 128.222 97.0549 128.213C98.8284 116.269 101.958 113.911 102.71 113.513C103.378 113.855 105.717 115.458 108.737 121.983C112.278 129.867 114.623 138.202 115.702 146.761C116.634 153.975 116.429 160.458 115.098 166.036C113.807 171.506 111.513 175.031 108.955 175.472C108.718 175.514 108.499 175.533 108.287 175.533C106.796 175.533 105.241 174.347 104.194 173.344C101.906 171.098 100.062 167.841 98.7063 163.673C97.691 160.542 96.9071 156.891 96.3802 152.827L96.393 152.822Z" fill="black"/>
<path d="M183.347 203.189C182.955 203.189 182.563 203.123 182.196 202.992C181.464 202.725 180.95 202.223 180.815 201.637L165.566 137.892L171.979 190.851C172.069 191.616 171.517 192.342 170.579 192.689L144.721 202.242C144.355 202.378 143.957 202.444 143.558 202.444C143.096 202.444 142.639 202.355 142.228 202.172C141.47 201.839 141.001 201.244 140.988 200.597C140.133 159.637 136.201 117.876 129.312 76.4812C129.19 75.7312 129.691 74.9999 130.597 74.6249L159.925 62.4749C160.317 62.3108 160.754 62.2311 161.191 62.2311C161.563 62.2311 161.936 62.2874 162.276 62.4093C163.028 62.6671 163.568 63.1733 163.716 63.7733L170.54 91.0827L167.995 67.7155C167.918 67.003 168.407 66.3187 169.248 65.953L197.31 53.8499C197.715 53.6765 198.164 53.5874 198.621 53.5874C198.993 53.5874 199.366 53.6437 199.707 53.7655C200.478 54.028 201.018 54.5483 201.152 55.1624C209.628 92.9155 218.843 127.186 228.533 157.022L234.284 174.722C234.541 175.519 234.065 176.344 233.101 176.766L208.221 187.598C207.816 187.776 207.36 187.866 206.904 187.866C206.544 187.866 206.184 187.809 205.85 187.701C205.085 187.448 204.532 186.942 204.378 186.337L193.84 145.631L199.572 196.078C199.655 196.837 199.109 197.559 198.177 197.901L184.51 202.987C184.143 203.123 183.745 203.194 183.34 203.194L183.347 203.189Z" fill="#50B861"/>
<path d="M198.621 55.4625C207.148 93.4406 216.292 127.434 226.04 157.453C227.974 163.411 229.889 169.312 231.791 175.153L206.91 185.986L187.209 109.889L197.014 196.228L183.347 201.314L157.663 93.9421L169.422 191.016L143.565 200.569C142.704 159.333 138.803 117.895 131.87 76.2562L161.197 64.1062L177.139 127.945L170.559 67.5656L198.621 55.4625ZM198.621 51.7125C197.715 51.7125 196.809 51.8859 196.006 52.2328L167.944 64.3359C167.456 64.5468 167.032 64.8093 166.672 65.114L166.254 63.4359C165.959 62.2406 164.879 61.2234 163.375 60.7125C162.681 60.4781 161.942 60.3609 161.197 60.3609C160.317 60.3609 159.443 60.525 158.659 60.8484L129.332 72.9984C127.526 73.7437 126.517 75.2109 126.768 76.7109C133.65 118.041 137.569 159.731 138.431 200.625C138.456 201.919 139.394 203.109 140.911 203.78C141.727 204.141 142.646 204.319 143.571 204.319C144.368 204.319 145.165 204.183 145.891 203.916L171.748 194.362C173.625 193.669 174.73 192.216 174.543 190.687L173.47 181.837L178.283 201.961C178.566 203.133 179.588 204.141 181.053 204.67C181.779 204.933 182.563 205.064 183.347 205.064C184.131 205.064 184.947 204.928 185.679 204.656L199.347 199.57C201.204 198.881 202.309 197.437 202.136 195.919L200.484 181.369L201.859 186.68C202.174 187.884 203.267 188.902 204.802 189.403C205.477 189.623 206.197 189.731 206.91 189.731C207.823 189.731 208.735 189.553 209.545 189.202L234.425 178.369C236.353 177.53 237.31 175.875 236.79 174.286L231.444 157.819L231.045 156.581C221.368 126.778 212.166 92.5546 203.697 54.8484C203.421 53.625 202.341 52.5796 200.799 52.0593C200.105 51.825 199.366 51.7078 198.621 51.7078V51.7125Z" fill="black"/>
<path d="M256.459 185.925C247.168 185.925 238.904 180.192 231.187 168.408C226.991 162.141 223.501 154.786 220.828 146.559C218.322 138.834 216.472 130.083 215.334 120.548C213.304 104.231 214.139 88.5891 217.834 74.0578C222.48 55.5047 230.583 45.4781 242.592 43.4016C243.839 43.1859 245.092 43.0781 246.332 43.0781C255.74 43.0781 264.138 49.0313 272.01 61.2703C272.26 61.6641 272.318 62.1094 272.17 62.5266L264.183 85.5094C263.932 86.2266 263.129 86.7703 262.127 86.8969C261.979 86.9156 261.838 86.925 261.69 86.925C260.842 86.925 260.038 86.6203 259.556 86.0906C257.899 84.2812 256.247 83.3625 254.647 83.3625C254.371 83.3625 254.088 83.3859 253.792 83.4375C249.147 84.2391 245.715 90.4406 244.128 100.889C242.843 109.542 242.817 119.011 244.064 129.023C244.527 132.956 245.253 136.458 246.223 139.448C247.656 143.859 249.661 147.262 252.186 149.578C254.217 151.477 256.202 152.391 258.265 152.391C258.689 152.391 259.132 152.353 259.582 152.273C262.686 151.739 265.095 149.044 266.753 144.267C267.948 140.887 268.61 136.866 268.732 132.262C264.395 134.414 260.308 136.57 256.543 138.694C256.086 138.952 255.527 139.087 254.968 139.087C254.628 139.087 254.287 139.041 253.966 138.937C253.111 138.675 252.52 138.094 252.411 137.419L248.408 111.497C248.298 110.808 248.729 110.128 249.513 109.739L281.314 93.9C281.745 93.6844 282.252 93.5719 282.76 93.5719C283.068 93.5719 283.377 93.6094 283.666 93.6937C284.45 93.9094 285.041 94.3922 285.247 94.9828C287.875 102.492 289.456 111.45 289.944 121.603C290.323 130.547 289.899 139.008 288.678 146.761C284.913 170.236 275.608 182.934 260.238 185.592C258.978 185.808 257.706 185.92 256.453 185.92L256.459 185.925Z" fill="#50B861"/>
<path d="M246.332 44.9437C254.564 44.9437 262.345 50.6484 269.677 62.0578L261.69 85.0406C259.511 82.6687 257.166 81.4828 254.641 81.4828C254.165 81.4828 253.683 81.525 253.195 81.6094C247.219 82.6406 243.344 89.0015 241.571 100.683C240.26 109.505 240.234 119.006 241.5 129.192C241.975 133.223 242.714 136.786 243.717 139.88C245.246 144.577 247.392 148.2 250.168 150.745C252.681 153.094 255.38 154.266 258.258 154.266C258.888 154.266 259.524 154.209 260.167 154.097C264.299 153.384 267.319 150.258 269.234 144.727C270.782 140.348 271.463 135.023 271.29 128.761C265.346 131.602 259.903 134.423 254.962 137.208L250.959 111.286L282.76 95.4468C285.35 102.858 286.892 111.6 287.38 121.669C287.759 130.552 287.341 138.844 286.133 146.545C282.541 168.933 273.712 181.336 259.653 183.769C258.58 183.956 257.519 184.045 256.459 184.045C248.337 184.045 240.69 178.561 233.506 167.592C229.368 161.409 225.975 154.256 223.328 146.119C220.835 138.445 219.023 129.862 217.892 120.375C215.868 104.147 216.69 88.8187 220.359 74.3906C224.767 56.8125 232.375 47.0859 243.184 45.2156C244.237 45.0328 245.285 44.9437 246.326 44.9437M246.332 41.1937C244.899 41.1937 243.441 41.3203 242.001 41.5687C228.893 43.8328 220.16 54.3515 215.308 73.7203C211.575 88.4109 210.72 104.227 212.777 120.722C213.927 130.331 215.797 139.177 218.329 146.991C221.04 155.348 224.594 162.83 228.88 169.233C237.06 181.73 246.082 187.805 256.459 187.805C257.911 187.805 259.383 187.678 260.835 187.425C269.356 185.953 276.27 181.561 281.378 174.375C286.056 167.798 289.378 158.583 291.236 146.991C292.469 139.139 292.9 130.584 292.514 121.561C292.019 111.253 290.413 102.164 287.74 94.5281C287.322 93.3422 286.146 92.3812 284.572 91.9453C283.981 91.7812 283.37 91.7015 282.753 91.7015C281.732 91.7015 280.723 91.9219 279.855 92.3531L248.054 108.192C246.48 108.975 245.632 110.33 245.844 111.708L249.847 137.63C250.053 138.975 251.241 140.137 252.951 140.662C253.593 140.859 254.274 140.958 254.949 140.958C256.067 140.958 257.179 140.691 258.098 140.175C260.565 138.783 263.181 137.372 265.912 135.961C265.616 138.877 265.057 141.497 264.247 143.789C262.898 147.68 260.983 150.103 258.972 150.45C258.715 150.497 258.477 150.516 258.246 150.516C256.748 150.516 255.225 149.386 254.204 148.434C254.191 148.425 254.184 148.416 254.172 148.406C251.884 146.311 250.046 143.152 248.697 139.012C247.752 136.111 247.045 132.698 246.596 128.869C245.362 118.959 245.381 109.622 246.653 101.086C248.806 86.9156 253.445 85.4156 254.352 85.2609C254.448 85.2422 254.538 85.2375 254.609 85.2375C255.123 85.2375 256.183 85.8234 257.384 87.1312C258.348 88.1812 259.961 88.7953 261.658 88.7953C261.947 88.7953 262.242 88.7765 262.532 88.739C264.53 88.4859 266.143 87.4031 266.644 85.964L274.631 62.9812C274.92 62.1422 274.805 61.2515 274.304 60.4687C265.969 47.5031 256.813 41.1984 246.3 41.1984L246.332 41.1937Z" fill="black"/>
<path d="M37.5266 59.086L41.337 52.0032L47.9299 59.086H58.3332L49.6584 65.1563L51.7404 72.2391L42.031 67.6829L32.116 71.0016L34.9048 64.2985L27.8172 59.5922L37.5266 59.086Z" fill="black" stroke="black" stroke-width="0.867188" stroke-linejoin="round"/>
<path d="M38.0985 58.125L41.9154 51.0422L48.5018 58.125H58.9051L50.2368 64.2001L52.3187 71.2829L42.6094 66.7266L32.6879 70.0454L35.4767 63.3422L28.3891 58.6313L38.0985 58.125Z" fill="#FF8000" stroke="black" stroke-width="0.867188" stroke-linejoin="round"/>
<path d="M285.645 38.0391L275.705 36.4032L284.932 31.9406L284.219 25.8375L293.106 30.4078L302.635 28.5891L297.083 34.6688L303.869 39.1641L292.469 39.8719L286.995 43.6922L285.645 38.0391Z" fill="black" stroke="black" stroke-width="0.867188" stroke-linejoin="round"/>
<path d="M286.789 37.0874L276.855 35.4468L286.082 30.9843L285.369 24.8859L294.256 29.4515L303.785 27.6327L298.227 33.7124L305.019 38.2077L293.613 38.9155L288.145 42.7359L286.789 37.0874Z" fill="#FF8000" stroke="black" stroke-width="0.867188" stroke-linejoin="round"/>
<path d="M148.873 40.6219L149.008 34.2891L156.77 38.5406L164.661 36.4547L160.452 42.9656L164.789 48.1172L155.652 46.4813L151.115 51.7266L147.857 45.1641L141.708 42.9656L148.873 40.6219Z" fill="#FF8000" stroke="black" stroke-width="0.867188" stroke-linejoin="round"/>
<path d="M166.884 44.7328L171.948 42.8343L170.971 47.4187L175.051 50.1046L168.593 50.339L165.85 53.7562L164.327 49.3968L158.768 49.0968L162.964 45.7031L162.817 42.4265L166.884 44.7328Z" fill="black" stroke="black" stroke-width="0.867188" stroke-linejoin="round"/>
<path d="M167.674 44.5079L172.738 42.6094L171.761 47.1938L175.848 49.8844L169.384 50.1141L166.64 53.5313L165.117 49.1719L159.559 48.8766L163.761 45.4782L163.607 42.2063L167.674 44.5079Z" fill="black" stroke="black" stroke-width="0.867188" stroke-linejoin="round"/>
<path d="M149.586 39.586L149.714 33.2532L157.477 37.5L165.374 35.4188L161.165 41.9297L165.502 47.0813L156.358 45.4454L151.822 50.6907L148.564 44.1282L142.415 41.9297L149.586 39.586Z" fill="#FF8000" stroke="black" stroke-width="0.867188" stroke-linejoin="round"/>
<path d="M23.4413 174.112L23.5698 167.78L31.3321 172.027L39.223 169.945L35.0141 176.452L39.3579 181.603L30.214 179.972L25.6774 185.217L22.4196 178.655L16.2701 176.452L23.4413 174.112Z" fill="#FF8000" stroke="black" stroke-width="0.867188" stroke-linejoin="round"/>
<path d="M24.2638 173.752L24.3923 167.419L32.1546 171.666L40.0455 169.584L35.8366 176.095L40.1804 181.247L31.0365 179.611L26.4999 184.856L23.2421 178.294L17.0926 176.095L24.2638 173.752Z" fill="#FF8000" stroke="black" stroke-width="0.867188" stroke-linejoin="round"/>
<path d="M265.545 196.069L273.269 193.172L271.778 200.17L278.011 204.272L268.154 204.623L263.965 209.841L261.645 203.184L253.163 202.734L259.569 197.55L259.338 192.553L265.545 196.069Z" fill="#FF8000" stroke="black" stroke-width="0.867188" stroke-linejoin="round"/>
<path d="M266.753 195.727L274.477 192.834L272.986 199.828L279.219 203.93L269.362 204.281L265.173 209.498L262.853 202.842L254.371 202.392L260.777 197.208L260.546 192.211L266.753 195.727Z" fill="#FF8000" stroke="black" stroke-width="0.867188" stroke-linejoin="round"/>
<path d="M235.582 196.303L240.646 194.405L239.669 198.989L243.756 201.68L237.298 201.909L234.547 205.331L233.025 200.967L227.466 200.672L231.669 197.273L231.515 194.002L235.582 196.303Z" fill="black" stroke="black" stroke-width="0.867188" stroke-linejoin="round"/>
<path d="M236.372 196.078L241.436 194.18L240.459 198.764L244.546 201.455L238.088 201.684L235.338 205.106L233.815 200.742L228.256 200.447L232.459 197.048L232.305 193.777L236.372 196.078Z" fill="black" stroke="black" stroke-width="0.867188" stroke-linejoin="round"/>
<path d="M136.336 221.25L136.464 214.917L144.227 219.169L152.124 217.083L147.915 223.594L152.252 228.745L143.109 227.109L137.679 231.581L136.529 225.539L129.165 223.594L136.336 221.25Z" fill="#FF8000" stroke="black" stroke-width="0.867188" stroke-linejoin="round"/>
<path d="M137.737 220.505L137.872 214.172L145.634 218.419L153.525 216.337L149.316 222.844L153.653 227.995L144.516 226.364L139.08 230.836L137.936 224.789L130.572 222.844L137.737 220.505Z" fill="#FF8000" stroke="black" stroke-width="0.867188" stroke-linejoin="round"/>
</svg>
